<svg xmlns="http://www.w3.org/2000/svg" xmlns:xlink="http://www.w3.org/1999/xlink" viewBox="0,0,256,256" width="48px" height="48px" fill-rule="nonzero"><defs><linearGradient x1="3.879" y1="3.879" x2="20.121" y2="20.121" gradientUnits="userSpaceOnUse" id="color-1"><stop offset="0" stop-color="#ffffff" stop-opacity="0.6"></stop><stop offset="1" stop-color="#ffffff" stop-opacity="0.3"></stop></linearGradient><linearGradient x1="3.879" y1="3.879" x2="20.121" y2="20.121" gradientUnits="userSpaceOnUse" id="color-2"><stop offset="0" stop-color="#ffffff" stop-opacity="0.6"></stop><stop offset="0.493" stop-color="#ffffff" stop-opacity="0"></stop><stop offset="0.997" stop-color="#ffffff" stop-opacity="0.3"></stop></linearGradient><linearGradient x1="7.791" y1="7.79" x2="16.209" y2="16.209" gradientUnits="userSpaceOnUse" id="color-3"><stop offset="0" stop-color="#ffffff" stop-opacity="0.7"></stop><stop offset="0.519" stop-color="#ffffff" stop-opacity="0.45"></stop><stop offset="1" stop-color="#ffffff" stop-opacity="0.55"></stop></linearGradient></defs><g fill-opacity="0.61961" fill="#f5eef2" fill-rule="nonzero" stroke="none" stroke-width="1" stroke-linecap="butt" stroke-linejoin="miter" stroke-miterlimit="10" stroke-dasharray="" stroke-dashoffset="0" font-family="none" font-weight="none" font-size="none" text-anchor="none" style="mix-blend-mode: normal"><path d="M0,256v-256h256v256z" id="bgRectangle"></path></g><g fill="none" fill-rule="nonzero" stroke="none" stroke-width="1" stroke-linecap="butt" stroke-linejoin="miter" stroke-miterlimit="10" stroke-dasharray="" stroke-dashoffset="0" font-family="none" font-weight="none" font-size="none" text-anchor="none" style="mix-blend-mode: normal"><g transform="scale(10.66667,10.66667)"><path d="M18,21h-12c-1.657,0 -3,-1.343 -3,-3v-12c0,-1.657 1.343,-3 3,-3h12c1.657,0 3,1.343 3,3v12c0,1.657 -1.343,3 -3,3z" fill="url(#color-1)"></path><path d="M18,3.5c1.378,0 2.5,1.122 2.5,2.5v12c0,1.378 -1.122,2.5 -2.5,2.5h-12c-1.378,0 -2.5,-1.122 -2.5,-2.5v-12c0,-1.378 1.122,-2.5 2.5,-2.5h12M18,3h-12c-1.657,0 -3,1.343 -3,3v12c0,1.657 1.343,3 3,3h12c1.657,0 3,-1.343 3,-3v-12c0,-1.657 -1.343,-3 -3,-3z" fill="url(#color-2)"></path><path d="M13.403,12l2.812,-2.812c0.384,-0.384 0.384,-1.008 0,-1.392l-0.011,-0.011c-0.384,-0.384 -1.008,-0.384 -1.392,0l-2.812,2.812l-2.812,-2.812c-0.384,-0.384 -1.008,-0.384 -1.392,0l-0.011,0.011c-0.384,0.385 -0.384,1.008 0,1.392l2.812,2.812l-2.812,2.812c-0.384,0.384 -0.384,1.008 0,1.392l0.011,0.011c0.384,0.384 1.008,0.384 1.392,0l2.812,-2.812l2.812,2.812c0.384,0.384 1.008,0.384 1.392,0l0.011,-0.011c0.384,-0.384 0.384,-1.008 0,-1.392z" fill="url(#color-3)"></path></g></g></svg>